<?xml version="1.0" standalone="no"?>
<!DOCTYPE svg PUBLIC "-//W3C//DTD SVG 20010904//EN"
 "http://www.w3.org/TR/2001/REC-SVG-20010904/DTD/svg10.dtd">
<svg version="1.0" xmlns="http://www.w3.org/2000/svg"
 width="474.000000pt" height="356.000000pt" viewBox="0 0 474.000000 356.000000"
 preserveAspectRatio="xMidYMid meet">

<g transform="translate(0.000000,356.000000) scale(0.100000,-0.100000)"
fill="#d6d6d6" stroke="none">
<path d="M1902 3536 c-76 -19 -189 -78 -249 -131 -61 -54 -132 -158 -161 -235
l-20 -55 -683 -5 -684 -5 -33 -23 c-18 -13 -39 -36 -47 -52 -33 -63 -9 -154
50 -190 32 -20 48 -20 713 -20 l680 0 13 -37 c19 -62 59 -135 101 -188 219
-277 623 -300 873 -50 66 65 109 135 154 248 l11 27 1006 0 c992 0 1007 0
1039 20 59 36 83 127 50 190 -8 16 -29 39 -47 52 l-33 23 -1011 3 -1011 2 -22
59 c-64 176 -222 318 -407 365 -73 19 -207 20 -282 2z m277 -312 c176 -95 214
-326 78 -466 -119 -122 -303 -125 -424 -6 -158 155 -94 425 119 494 67 22 164
13 227 -22z"/>
<path d="M3556 2355 c-180 -46 -344 -193 -407 -367 l-22 -58 -1506 -2 c-1486
-3 -1506 -3 -1540 -23 -93 -55 -93 -195 0 -250 34 -20 54 -20 1540 -23 l1506
-2 22 -58 c65 -179 230 -324 417 -368 143 -33 321 -3 443 76 113 73 185 161
237 288 l23 57 178 5 c154 4 182 8 212 25 93 55 93 195 0 250 -30 17 -58 21
-212 25 l-178 5 -23 57 c-69 170 -202 297 -365 349 -86 28 -243 34 -325 14z
m271 -309 c224 -114 223 -417 -2 -534 -74 -38 -178 -38 -257 1 -126 62 -195
211 -159 342 48 181 255 275 418 191z"/>
<path d="M1024 1175 c-191 -41 -368 -201 -429 -386 l-17 -49 -235 0 c-219 0
-238 -1 -268 -20 -59 -36 -83 -127 -50 -190 8 -16 29 -39 47 -52 32 -22 42
-23 271 -28 l238 -5 23 -57 c61 -149 156 -253 288 -317 98 -46 161 -61 265
-61 239 0 462 156 544 382 l22 58 1456 2 1456 3 33 23 c18 13 39 36 47 52 33
63 9 154 -50 190 -32 20 -46 20 -1484 20 l-1451 0 -11 28 c-48 119 -86 180
-154 247 -143 144 -344 203 -541 160z m254 -307 c228 -107 227 -419 -1 -540
-58 -31 -182 -32 -248 -2 -103 48 -173 159 -173 274 1 216 226 359 422 268z"/>
</g>
</svg>
