<?xml version="1.0" encoding="UTF-8"?>
<svg version="1.1" viewBox="0 0 752 752" xmlns="http://www.w3.org/2000/svg">
 <g fill="#fff">
  <path d="m377.52 247.6c-77.352 0-140.29 62.934-140.29 140.29 0 77.355 62.934 140.29 140.29 140.29 77.352 0 140.29-62.93 140.29-140.29 0-77.352-62.934-140.29-140.29-140.29zm0 234.4c-51.895 0-94.113-42.219-94.113-94.113 0-51.871 42.18-94.074 94.047-94.113v94.562l87.43-35.387c4.3398 10.809 6.7539 22.598 6.7539 34.938 0 51.895-42.219 94.113-94.117 94.113z"/>
  <path d="m346.89 206.76h61.266v33.738h-61.266z"/>
 </g>
</svg>
