<?xml version="1.0" standalone="no"?>
<!DOCTYPE svg PUBLIC "-//W3C//DTD SVG 20010904//EN"
 "http://www.w3.org/TR/2001/REC-SVG-20010904/DTD/svg10.dtd">
<svg version="1.0" xmlns="http://www.w3.org/2000/svg"
 width="512.000000pt" height="512.000000pt" viewBox="0 0 512.000000 512.000000"
 preserveAspectRatio="xMidYMid meet">

<g transform="translate(0.000000,512.000000) scale(0.100000,-0.100000)"
fill="#d0cdcc" stroke="none">
<path d="M1869 5090 c-54 -28 -93 -72 -107 -117 -16 -53 -16 -467 -1 -514 14
-40 61 -94 104 -117 21 -12 65 -18 153 -22 l123 -5 19 -55 c21 -63 74 -116
124 -125 17 -4 144 -5 282 -3 l251 3 36 28 c39 30 66 73 77 122 l6 30 124 6
c69 3 136 10 150 16 38 17 99 85 110 124 13 45 13 464 0 509 -12 41 -45 80
-96 115 l-37 25 -641 0 c-613 -1 -643 -2 -677 -20z"/>
<path d="M3889 3973 l-150 -147 198 -199 c109 -109 219 -216 244 -238 l47 -39
151 147 152 146 -238 239 c-131 131 -242 238 -247 238 -4 0 -75 -66 -157 -147z"/>
<path d="M2268 3864 c-590 -91 -1102 -434 -1399 -937 -94 -158 -166 -334 -214
-521 -55 -219 -68 -578 -27 -786 76 -385 219 -682 454 -950 644 -731 1727
-875 2533 -335 235 157 451 383 591 619 205 344 303 773 265 1159 -25 257 -79
453 -182 667 -286 594 -846 1000 -1496 1085 -139 18 -406 18 -525 -1z m592
-477 c560 -133 983 -547 1115 -1091 81 -333 44 -685 -105 -992 -202 -416 -581
-708 -1050 -810 -121 -27 -439 -27 -560 0 -308 66 -552 200 -773 421 -444 446
-551 1129 -266 1692 75 150 153 256 274 378 198 197 425 326 696 395 133 34
185 39 379 35 154 -3 203 -7 290 -28z"/>
<path d="M2501 3177 c-65 -33 -70 -60 -97 -572 l-16 -320 -74 -70 c-101 -96
-119 -138 -119 -275 0 -98 2 -109 30 -158 32 -60 105 -130 160 -156 91 -44
219 -44 310 0 55 26 128 96 160 156 25 45 30 67 33 143 6 132 -17 187 -118
285 l-77 75 -7 200 c-4 110 -13 297 -22 415 -16 235 -21 251 -79 276 -42 17
-53 17 -84 1z"/>
</g>
</svg>
