<?xml version="1.0" standalone="no"?>
<!DOCTYPE svg PUBLIC "-//W3C//DTD SVG 20010904//EN"
 "http://www.w3.org/TR/2001/REC-SVG-20010904/DTD/svg10.dtd">
<svg version="1.0" xmlns="http://www.w3.org/2000/svg"
 width="324.000000pt" height="190.000000pt" viewBox="0 0 324.000000 190.000000"
 preserveAspectRatio="xMidYMid meet">

<g transform="translate(0.000000,190.000000) scale(0.100000,-0.100000)"
fill="#5d5c59" stroke="none">
<path d="M1559 1886 c-25 -6 -59 -23 -76 -37 -70 -57 -1430 -1482 -1450 -1520
-49 -90 -21 -221 59 -279 59 -43 131 -56 199 -37 64 19 65 20 825 812 274 286
501 520 504 520 3 0 284 -290 625 -645 410 -426 636 -653 665 -669 93 -52 226
-18 287 73 39 59 45 163 11 224 -18 34 -471 509 -1406 1479 -77 79 -153 104
-243 79z"/>
</g>
</svg>
