<?xml version="1.0" standalone="no"?>
<!DOCTYPE svg PUBLIC "-//W3C//DTD SVG 20010904//EN"
 "http://www.w3.org/TR/2001/REC-SVG-20010904/DTD/svg10.dtd">
<svg version="1.0" xmlns="http://www.w3.org/2000/svg"
 width="384.000000pt" height="251.000000pt" viewBox="0 0 384.000000 251.000000"
 preserveAspectRatio="xMidYMid meet">

<g transform="translate(0.000000,251.000000) scale(0.100000,-0.100000)"
fill="#d0cdcc" stroke="none">
<path d="M3077 2504 c-4 -4 -7 -472 -7 -1041 l0 -1033 245 0 245 0 -2 1038 -3
1037 -236 3 c-129 1 -238 -1 -242 -4z"/>
<path d="M280 1440 l0 -1010 245 0 245 0 0 1010 0 1010 -245 0 -245 0 0 -1010z"/>
<path d="M1210 1215 l0 -785 245 0 245 0 0 785 0 785 -245 0 -245 0 0 -785z"/>
<path d="M2147 1534 c-4 -4 -7 -254 -7 -556 l0 -548 245 0 245 0 -2 553 -3
552 -236 3 c-129 1 -238 -1 -242 -4z"/>
<path d="M0 185 l0 -185 1920 0 1920 0 0 185 0 185 -1920 0 -1920 0 0 -185z"/>
</g>
</svg>
