<?xml version="1.0" standalone="no"?>
<!DOCTYPE svg PUBLIC "-//W3C//DTD SVG 20010904//EN"
 "http://www.w3.org/TR/2001/REC-SVG-20010904/DTD/svg10.dtd">
<svg version="1.0" xmlns="http://www.w3.org/2000/svg"
 width="1932.000000pt" height="1930.000000pt" viewBox="0 0 1932.000000 1930.000000"
 preserveAspectRatio="xMidYMid meet">

<g transform="translate(0.000000,1930.000000) scale(0.100000,-0.100000)"
fill="#e8e8e8" stroke="none">
<path d="M2350 19290 c-1005 -10 -1068 -13 -1185 -51 -187 -62 -450 -210 -615
-347 -173 -144 -307 -337 -469 -678 l-81 -171 0 -8402 0 -8401 108 -217 c60
-120 126 -245 147 -278 141 -221 335 -405 563 -533 48 -27 164 -86 258 -131
l171 -81 5067 0 5066 0 223 109 c239 117 357 191 479 298 175 155 279 303 438
623 l111 225 2 890 c2 679 -1 909 -11 970 -38 242 -96 361 -263 540 -346 371
-816 433 -1223 161 -172 -114 -363 -332 -416 -472 -60 -162 -71 -284 -77 -866
l-6 -498 -4328 0 -4329 0 0 7665 0 7665 4329 0 4328 0 6 -497 c6 -583 17 -705
77 -867 53 -140 244 -357 416 -472 405 -271 878 -209 1223 161 167 179 225
298 263 540 10 61 12 289 11 967 l-3 887 -87 183 c-132 278 -203 395 -328 538
-143 165 -320 289 -624 438 l-214 104 -4126 3 c-2269 2 -4475 0 -4901 -5z"/>
<path d="M14424 14390 c-172 -15 -311 -65 -449 -160 -289 -200 -450 -561 -415
-927 15 -163 53 -255 171 -413 120 -162 297 -348 1221 -1280 l946 -955 -4896
-6 c-4652 -7 -5879 -14 -6198 -38 -80 -6 -139 -17 -179 -32 -285 -106 -559
-446 -630 -782 -62 -291 76 -649 350 -904 154 -144 273 -200 460 -214 314 -24
1479 -30 6148 -36 l4948 -6 -858 -861 c-875 -877 -1088 -1098 -1243 -1288
-168 -204 -223 -319 -240 -500 -29 -301 69 -589 273 -804 117 -124 279 -221
431 -258 207 -51 500 -35 666 36 131 56 572 478 2125 2033 1947 1948 2177
2199 2240 2440 21 81 21 339 0 420 -33 125 -122 254 -351 512 -200 224 -392
421 -1398 1437 -1402 1415 -2382 2371 -2556 2491 -104 72 -356 115 -566 95z"/>
</g>
</svg>
