<?xml version="1.0" standalone="no"?>
<!DOCTYPE svg PUBLIC "-//W3C//DTD SVG 20010904//EN"
 "http://www.w3.org/TR/2001/REC-SVG-20010904/DTD/svg10.dtd">
<svg version="1.0" xmlns="http://www.w3.org/2000/svg"
 width="512.000000pt" height="512.000000pt" viewBox="0 0 512.000000 512.000000"
 preserveAspectRatio="xMidYMid meet">

<g transform="translate(0.000000,512.000000) scale(0.100000,-0.100000)"
fill="#b2b1b1" stroke="none">
<path d="M2425 5081 c-95 -8 -126 -24 -207 -109 -69 -72 -92 -116 -124 -240
-43 -160 -70 -189 -229 -246 -174 -63 -238 -59 -346 20 -131 97 -254 135 -379
116 -61 -9 -78 -17 -147 -69 -43 -32 -113 -91 -155 -131 -88 -84 -106 -123
-115 -242 -7 -100 9 -172 63 -277 38 -75 44 -95 44 -148 0 -65 -6 -79 -92
-223 -79 -132 -139 -172 -260 -172 -132 0 -257 -51 -349 -140 -53 -52 -57 -59
-78 -145 -11 -50 -28 -145 -38 -211 -16 -116 -16 -124 1 -168 43 -113 162
-224 290 -270 129 -47 158 -86 187 -243 37 -210 24 -262 -94 -373 -81 -77
-127 -151 -152 -245 -25 -98 -20 -129 36 -235 93 -176 170 -290 209 -310 110
-56 245 -65 381 -25 151 44 211 31 340 -75 149 -124 169 -167 148 -324 -10
-76 -10 -114 -1 -164 12 -74 68 -195 105 -230 30 -29 209 -103 339 -142 95
-28 99 -29 154 -14 125 32 221 108 307 239 78 121 100 130 297 130 140 0 159
-2 195 -22 48 -26 81 -60 127 -133 47 -75 125 -145 201 -180 82 -40 119 -46
160 -27 17 8 57 22 87 32 138 44 287 109 318 139 44 41 89 136 104 214 9 49 9
86 0 160 -14 110 -6 154 36 212 32 43 145 140 213 183 47 29 60 32 123 31 41
-1 90 -9 116 -19 60 -23 212 -31 281 -15 108 25 145 55 224 178 87 135 145
258 145 305 -1 118 -54 229 -161 340 -128 131 -135 158 -100 360 28 155 61
201 176 243 38 13 87 35 110 48 62 37 142 128 177 202 l31 66 -12 102 c-15
121 -48 281 -66 316 -19 36 -115 124 -161 148 -64 33 -144 52 -214 52 -144 0
-206 41 -301 196 -69 112 -77 136 -78 208 -1 51 5 71 39 137 72 140 86 263 44
399 -18 62 -44 89 -212 225 -120 97 -156 110 -270 102 -93 -6 -171 -34 -252
-90 -161 -111 -176 -113 -342 -56 -196 68 -233 102 -268 253 -35 150 -114 267
-223 330 -37 21 -58 25 -172 29 -71 2 -166 2 -210 -2z m302 -263 c41 -44 57
-79 77 -167 22 -102 67 -180 145 -254 67 -63 112 -87 231 -127 166 -55 248
-67 340 -50 77 14 157 53 171 83 22 47 136 107 204 107 46 0 225 -150 238
-199 11 -44 -6 -119 -42 -184 -43 -77 -61 -150 -61 -243 0 -88 26 -193 58
-235 10 -13 34 -51 52 -84 124 -221 268 -314 484 -315 73 0 137 -22 170 -59
17 -19 56 -204 56 -265 0 -54 -46 -96 -173 -159 -95 -47 -124 -67 -172 -119
-32 -34 -71 -91 -87 -125 -39 -82 -63 -228 -63 -383 0 -120 1 -128 32 -192 23
-49 58 -95 122 -163 70 -73 93 -105 104 -142 13 -44 13 -51 -6 -88 -50 -99
-128 -213 -149 -219 -44 -11 -123 -6 -184 14 -132 41 -260 33 -373 -24 -52
-27 -153 -108 -249 -200 -126 -121 -179 -278 -148 -437 21 -111 -1 -195 -57
-218 -113 -45 -235 -81 -258 -76 -40 9 -102 67 -129 121 -58 113 -192 211
-329 240 -85 18 -277 18 -364 -1 -126 -26 -259 -120 -309 -218 -33 -67 -65
-103 -112 -127 -42 -23 -44 -23 -97 -6 -162 52 -220 79 -236 110 -20 38 -21
118 -4 207 24 118 -23 274 -113 376 -109 124 -286 239 -413 269 -83 20 -156
14 -271 -22 -89 -28 -172 -29 -198 -2 -7 7 -42 65 -78 130 -87 151 -84 170 52
306 150 150 185 274 146 517 -31 200 -70 285 -173 377 -46 42 -161 108 -188
108 -20 0 -91 59 -112 93 l-21 34 21 124 c11 68 27 134 34 145 25 38 93 63
187 68 212 11 332 88 454 291 76 127 101 185 116 274 17 100 0 189 -57 307
-38 77 -45 101 -45 152 l0 60 85 73 c118 102 139 112 203 98 28 -6 68 -24 89
-40 83 -64 159 -110 205 -124 76 -22 157 -28 226 -15 97 17 301 89 357 125 98
63 170 167 200 290 24 97 54 162 88 191 27 23 36 24 161 24 l132 0 31 -32z"/>
<path d="M2389 3799 c-226 -33 -431 -121 -614 -264 -243 -190 -416 -477 -471
-783 -23 -130 -21 -343 5 -469 120 -579 596 -994 1184 -1029 555 -34 1078 317
1271 854 94 264 94 590 0 854 -64 178 -160 327 -303 469 -158 158 -313 254
-515 318 -171 55 -391 75 -557 50z m421 -262 c283 -73 509 -242 652 -488 241
-416 162 -939 -193 -1272 -139 -131 -310 -221 -501 -263 -89 -20 -308 -23
-393 -5 -83 17 -210 59 -270 89 -202 100 -377 274 -474 468 -146 293 -147 631
-3 919 154 310 454 527 794 575 104 15 281 4 388 -23z"/>
</g>
</svg>
