<?xml version="1.0" standalone="no"?>
<!DOCTYPE svg PUBLIC "-//W3C//DTD SVG 20010904//EN"
 "http://www.w3.org/TR/2001/REC-SVG-20010904/DTD/svg10.dtd">
<svg version="1.0" xmlns="http://www.w3.org/2000/svg"
 width="378.000000pt" height="600.000000pt" viewBox="0 0 378.000000 600.000000"
 preserveAspectRatio="xMidYMid meet">

<g transform="translate(0.000000,600.000000) scale(0.100000,-0.100000)"
fill="#eeecec" stroke="none">
<path d="M1600 5712 l0 -288 -123 -22 c-333 -61 -592 -195 -823 -426 -214
-215 -333 -434 -391 -721 -25 -128 -25 -436 0 -553 72 -327 242 -594 481 -753
230 -154 597 -285 1101 -394 562 -121 721 -195 803 -374 23 -48 26 -70 27
-152 0 -90 -2 -99 -38 -171 -65 -133 -201 -234 -375 -279 -170 -43 -470 -43
-652 2 -47 11 -132 43 -190 71 -92 44 -115 61 -195 142 -97 97 -154 189 -199
324 -21 60 -25 67 -47 63 -45 -6 -972 -221 -977 -226 -9 -9 78 -259 124 -355
109 -230 306 -458 510 -593 234 -155 545 -265 872 -308 l92 -12 0 -343 0 -344
290 0 290 0 0 343 0 344 98 12 c467 60 848 234 1088 496 204 222 332 466 391
745 23 108 25 409 4 515 -80 405 -367 773 -736 946 -177 83 -550 192 -940 274
-245 51 -299 64 -405 97 -184 58 -271 119 -331 230 -29 55 -34 74 -37 154 -9
194 69 311 253 379 159 60 466 72 639 26 157 -42 292 -126 381 -239 38 -47
130 -211 146 -261 4 -11 114 22 462 138 251 84 457 156 457 160 0 16 -55 141
-102 234 -203 397 -548 659 -1020 776 -97 25 -295 60 -340 61 -5 0 -8 128 -8
285 l0 285 -290 0 -290 0 0 -288z"/>
</g>
</svg>
