<?xml version="1.0" standalone="no"?>
<!DOCTYPE svg PUBLIC "-//W3C//DTD SVG 20010904//EN"
 "http://www.w3.org/TR/2001/REC-SVG-20010904/DTD/svg10.dtd">
<svg version="1.0" xmlns="http://www.w3.org/2000/svg"
 width="342.000000pt" height="342.000000pt" viewBox="0 0 342.000000 342.000000"
 preserveAspectRatio="xMidYMid meet">

<g transform="translate(0.000000,342.000000) scale(0.100000,-0.100000)"
fill="#eeecec" stroke="none">
<path d="M486 3394 c-213 -52 -398 -231 -455 -442 -44 -164 -20 -363 60 -498
54 -91 161 -192 255 -242 100 -51 183 -72 296 -72 118 0 176 14 287 67 131 63
221 153 284 284 53 110 67 169 67 284 0 115 -14 174 -67 284 -36 75 -59 108
-116 165 -82 82 -195 146 -298 171 -79 18 -235 18 -313 -1z"/>
<path d="M1560 1855 l-1555 -1555 150 -150 150 -150 1552 1552 c854 854 1553
1558 1553 1563 0 10 -280 295 -290 295 -3 0 -705 -700 -1560 -1555z"/>
<path d="M2653 1270 c-63 -13 -172 -59 -230 -97 -74 -49 -174 -161 -210 -235
-49 -100 -64 -156 -70 -259 -13 -231 90 -439 283 -568 108 -73 210 -103 344
-104 190 -1 321 53 455 188 135 134 189 265 188 455 -1 133 -31 232 -103 342
-120 182 -321 289 -540 287 -41 -1 -94 -5 -117 -9z"/>
</g>
</svg>
