<?xml version="1.0" standalone="no"?>
<!DOCTYPE svg PUBLIC "-//W3C//DTD SVG 20010904//EN"
 "http://www.w3.org/TR/2001/REC-SVG-20010904/DTD/svg10.dtd">
<svg version="1.0" xmlns="http://www.w3.org/2000/svg"
 width="200.000000pt" height="200.000000pt" viewBox="0 0 200.000000 200.000000"
 preserveAspectRatio="xMidYMid meet">

<g transform="translate(0.000000,200.000000) scale(0.100000,-0.100000)"
fill="#dadada" stroke="none">
<path d="M832 1985 c-215 -39 -385 -127 -537 -280 -181 -180 -279 -402 -292
-660 -24 -477 293 -898 767 -1018 121 -30 339 -30 460 0 372 94 649 371 743
743 30 121 30 339 0 460 -87 343 -331 609 -660 719 -145 49 -333 63 -481 36z
m331 -251 c153 -34 321 -137 420 -259 301 -373 180 -935 -248 -1146 -317 -156
-699 -74 -918 196 -61 76 -131 219 -151 312 -20 92 -20 234 0 326 20 93 90
236 151 312 97 119 254 218 405 256 93 22 246 24 341 3z"/>
<path d="M638 1404 c-37 -20 -58 -63 -58 -120 0 -47 1 -48 117 -166 l117 -118
-117 -118 c-116 -118 -117 -119 -117 -166 0 -26 7 -60 15 -76 20 -39 63 -60
121 -60 47 0 48 1 166 117 l118 117 118 -117 c118 -116 119 -117 166 -117 90
0 136 46 136 136 0 47 -1 48 -117 166 l-117 118 117 118 c116 118 117 119 117
166 0 58 -21 101 -60 121 -16 8 -50 15 -76 15 -47 0 -48 -1 -166 -117 l-118
-117 -118 117 -119 117 -49 0 c-27 -1 -61 -7 -76 -16z"/>
</g>
</svg>
